<svg width="456" height="456" viewBox="0 0 456 456" fill="none" xmlns="http://www.w3.org/2000/svg">
<rect width="456" height="456" fill="#512BD4"/>
<path d="M105.501 281.61C102.798 281.61 100.5 280.709 98.6074 278.908C96.7152 277.06 95.7695 274.866 95.7695 272.326C95.7695 269.738 96.7152 267.522 98.6074 265.674C100.5 263.826 102.798 262.902 105.501 262.902C108.249 262.902 110.569 263.826 112.461 265.674C114.398 267.522 115.367 269.738 115.367 272.326C115.367 274.866 114.398 277.06 112.461 278.908C110.569 280.709 108.249 281.61 105.501 281.61Z" fill="white"/>
<path d="M213.563 280.083H195.992L149.701 207.053C148.53 205.205 147.561 203.288 146.795 201.301H146.389C146.75 203.427 146.93 207.977 146.93 214.951V280.083H131.387V180.723H150.106L194.843 252.021C196.736 254.978 197.952 257.01 198.493 258.118H198.763C198.313 255.486 198.087 251.028 198.087 244.745V180.723H213.563V280.083Z" fill="white"/>
<path d="M289.252 280.083H234.852V180.723H287.09V194.719H250.936V222.85H284.252V236.777H250.936V266.156H289.252V280.083Z" fill="white"/>
<path d="M366.565 194.719H338.722V280.083H322.638V194.719H294.863V180.723H366.565V194.719Z" fill="white"/>
</svg>
